#N canvas 517 109 757 343 12;
#X obj 20 255 hsl 80 18 -7 7 0 0 \$0-stepsslider \$0-stepsinit Steps\ &\ dir. 6 9 0 10 #dfdfdf #000000 #7c7c7c 0 1;
#X floatatom 107 255 3 0 0 0 - \$0-steps \$0-stepsshowdummy 0;
#N canvas 735 471 291 221 defsteps 0;
#X obj 13 15 r \$0-index;
#X obj 13 111 s \$0-stepsinit;
#X obj 13 137 r \$0-stepsslider;
#X obj 13 161 i, f 1;
#X obj 13 185 s \$0-steps;
#X obj 13 39 t f f, f 6;
#X obj 13 63 pack;
#X obj 52 63 * -1;
#X msg 13 87 range \$2 \$1;
#X obj 133 161 i, f 1;
#X obj 133 137 r \$0-seqsaddsteps;
#X obj 133 185 s \$0-seqszshow;
#X obj 123 111 s \$0-seqsaddstepsinit;
#X obj 123 63 r \$0-reset;
#X msg 123 87 0;
#X connect 0 0 5 0;
#X connect 2 0 3 0;
#X connect 3 0 4 0;
#X connect 5 0 6 0;
#X connect 5 1 7 0;
#X connect 6 0 8 0;
#X connect 7 0 6 1;
#X connect 8 0 1 0;
#X connect 8 0 12 0;
#X connect 9 0 11 0;
#X connect 10 0 9 0;
#X connect 13 0 14 0;
#X connect 14 0 12 0;
#X restore 179 181 pd defsteps;
#X obj 18 40 i;
#X obj 18 64 + 1;
#X obj 18 86 mod, f 5;
#X obj 18 181 outlet;
#X obj 344 86 i, f 2;
#X obj 18 17 inlet Bang;
#X obj 460 17 inlet Presets;
#X obj 567 87 s \$0-stepsinit;
#X obj 567 110 s \$0-arraninit;
#X obj 135 255 bng 18 250 50 0 \$0-bpat \$0-bpatinit g 6 9 0 10 #000000 #000000 #ffffff;
#X obj 344 17 r \$0-bpat;
#X obj 692 17 loadbang;
#X text 558 296 Author: Martin Heinze, f 22;
#X floatatom 107 301 3 0 0 1 - \$0-seqszshow \$0-seqsz 0;
#X obj 179 157 array define \$0-arpa;
#X obj 179 17 inlet Notes;
#X obj 202 64 list length;
#X obj 212 86 s \$0-index;
#X obj 179 133 array set \$0-arpa;
#X obj 460 40 route bang list, f 31;
#X obj 179 40 t l l b;
#X obj 202 110 array size \$0-arpa;
#X obj 344 110 +, f 4;
#X obj 369 64 r \$0-seqsz;
#X obj 369 86 t b f;
#X obj 355 40 r \$0-index;
#X obj 344 133 s \$0-whlseq;
#X obj 50 64 r \$0-whlseq;
#N canvas 638 425 466 300 seqselect 0;
#X obj 12 11 inlet;
#X obj 12 163 array get \$0-seq;
#X obj 164 163 array get \$0-ran;
#X obj 12 141 spigot;
#X obj 164 141 spigot;
#X floatatom 132 182 3 0 0 0 - - - 0;
#X obj 132 205 outlet;
#X obj 203 211 sel 1;
#X obj 203 234 array get \$0-ran;
#X obj 203 263 s \$0-cseq;
#X obj 51 211 sel 1;
#X obj 51 234 array get \$0-seq;
#X obj 51 64 f, f 2;
#X obj 144 45 t b f;
#X obj 144 11 r \$0-arran;
#X obj 51 41 r \$0-rearran;
#X obj 317 163 random, f 8;
#X obj 317 141 spigot;
#X obj 51 88 expr if($f1==0 \, 1 \, 0) \; if($f1==1 \, 1 \, 0) \; if($f1==2 \, 1 \, 0), f 44;
#X obj 370 141 r \$0-index;
#X obj 317 187 s \$0-ranshow;
#X connect 0 0 3 0;
#X connect 0 0 4 0;
#X connect 0 0 17 0;
#X connect 1 0 5 0;
#X connect 2 0 5 0;
#X connect 3 0 1 0;
#X connect 4 0 2 0;
#X connect 5 0 6 0;
#X connect 7 0 8 0;
#X connect 8 0 9 0;
#X connect 10 0 11 0;
#X connect 11 0 9 0;
#X connect 12 0 18 0;
#X connect 13 0 12 0;
#X connect 13 1 12 1;
#X connect 14 0 13 0;
#X connect 15 0 12 0;
#X connect 16 0 5 0;
#X connect 16 0 20 0;
#X connect 17 0 16 0;
#X connect 18 0 3 1;
#X connect 18 0 10 0;
#X connect 18 1 4 1;
#X connect 18 1 7 0;
#X connect 18 2 17 1;
#X connect 19 0 16 1;
#X restore 18 110 pd seqselect;
#N canvas 475 379 543 398 sequences 0;
#X obj 101 105 r \$0-steps;
#X obj 36 202 list store;
#X msg 69 56 \$1, f 2;
#X obj 69 79 until;
#X msg 69 177 append \$1;
#X obj 69 105 i;
#X obj 69 130 +, f 5;
#X obj 69 154 mod, f 7;
#X msg 113 79 \$1, f 2;
#X obj 197 32 r \$0-steps;
#X obj 113 56 expr if($f2>=0 \, -1 \, 1);
#X obj 302 202 list store;
#X msg 333 106 \$1, f 2;
#X obj 333 129 until;
#X msg 333 177 append \$1;
#X obj 333 154 random, f 7;
#X obj 80 226 array define \$0-seq;
#X obj 36 226 t l l;
#X obj 68 251 list length;
#X obj 68 275 array size \$0-seq;
#X obj 36 299 array set \$0-seq;
#X obj 302 226 t l l;
#X obj 334 251 list length;
#X obj 346 226 array define \$0-ran;
#X obj 334 275 array size \$0-ran;
#X obj 302 299 array set \$0-ran;
#X obj 379 129 r \$0-index;
#X listbox 282 335 34 0 0 0 - - - 0;
#X listbox 16 335 36 0 0 0 - - - 0;
#X obj 302 32 t b f b, f 9;
#X obj 115 130 r \$0-index;
#X obj 36 32 t b f b, f 10;
#X obj 35 9 r \$0-whlseq;
#X obj 302 9 r \$0-whlseq;
#X text 40 362 Step up/down sequence;
#X text 310 362 Random sequence;
#X connect 0 0 6 1;
#X connect 1 0 17 0;
#X connect 2 0 3 0;
#X connect 3 0 5 0;
#X connect 4 0 1 0;
#X connect 5 0 6 0;
#X connect 6 0 7 0;
#X connect 7 0 5 1;
#X connect 7 0 4 0;
#X connect 8 0 5 1;
#X connect 9 0 10 1;
#X connect 10 0 8 0;
#X connect 11 0 21 0;
#X connect 12 0 13 0;
#X connect 13 0 15 0;
#X connect 14 0 11 0;
#X connect 15 0 14 0;
#X connect 17 0 20 0;
#X connect 17 0 28 0;
#X connect 17 1 18 0;
#X connect 18 0 19 0;
#X connect 21 0 25 0;
#X connect 21 0 27 0;
#X connect 21 1 22 0;
#X connect 22 0 24 0;
#X connect 26 0 15 1;
#X connect 29 0 11 0;
#X connect 29 1 12 0;
#X connect 29 2 11 1;
#X connect 30 0 7 1;
#X connect 31 0 1 0;
#X connect 31 1 2 0;
#X connect 31 2 10 0;
#X connect 31 2 1 1;
#X connect 32 0 31 0;
#X connect 33 0 29 0;
#X restore 344 181 pd sequences;
#X obj 460 64 s \$0-bpatinit;
#X listbox 17 278 24 0 0 0 - \$0-cseq \$0-cseqdummy 0;
#X msg 431 129 bang;
#X obj 431 152 s \$0-rearran;
#X obj 20 301 hsl 80 18 -7 7 0 0 \$0-seqsaddsteps \$0-seqsaddstepsinit +\ seq.\ steps 4 9 0 10 #dfdfdf #000000 #7c7c7c 0 1;
#X obj 135 301 bng 18 250 50 0 \$0-reset \$0-resetinit r 6 9 0 10 #000000 #000000 #ffffff;
#X obj 567 133 s \$0-seqsaddstepsinit;
#X obj 567 64 unpack f f f, f 15;
#X msg 692 45 1 0 0;
#X obj 158 255 hradio 18 1 0 3 \$0-arran \$0-arraninit a\ \ s\ \ r 6 9 0 10 #000000 #ff8300 #ffffff 0;
#X floatatom 189 278 3 0 0 0 - \$0-ranshow \$0-ranshowdummy 0;
#X obj 18 133 array get \$0-arpa 0 1;
#X obj 157 301 hradio 18 1 0 3 \$0-aroct \$0-aroctinit 0\ \ 1\ \ 2 6 9 0 10 #000000 #ff0400 #ffffff 0;
#N canvas 485 558 439 171 octaver 0;
#X obj 335 38 r \$0-aroct;
#X obj 44 87 expr random(-1 \, 2)* $f1;
#X obj 44 63 expr if($f2 == 0 \, 0 \, if($f2 == 1 \, 12 \, 24));
#X obj 12 14 inlet;
#X obj 12 38 t f b;
#X obj 12 135 outlet;
#X obj 12 112 +, f 5;
#X connect 0 0 2 1;
#X connect 1 0 6 1;
#X connect 2 0 1 0;
#X connect 3 0 4 0;
#X connect 4 0 6 0;
#X connect 4 1 2 0;
#X connect 6 0 5 0;
#X restore 18 157 pd octaver;
#X text 558 312 Last updated: 18.01.26;
#X text 12 231 ........... ~ARPA~ ..........;
#X text 229 228 Arpa is an addon for Scaleculator or Chordculator abstractions that generates (arpeggio) note sequences based on the scale's/chord's note values (currently modes are: arpeggio step up/down \, random sequence \, fully random)., f 69;
#N canvas 536 582 243 99 todo 0;
#X text 11 10 Todos \; Pendulum mode \; Custom pattern \; more sophisticated octaver;
#X restore 232 311 pd todo;
#X connect 3 0 4 0;
#X connect 4 0 5 0;
#X connect 5 0 3 1;
#X connect 5 0 31 0;
#X connect 7 0 25 0;
#X connect 8 0 3 0;
#X connect 9 0 22 0;
#X connect 13 0 7 0;
#X connect 14 0 41 0;
#X connect 18 0 23 0;
#X connect 19 0 20 0;
#X connect 19 0 24 0;
#X connect 22 0 33 0;
#X connect 22 1 40 0;
#X connect 23 0 21 0;
#X connect 23 1 19 0;
#X connect 25 0 29 0;
#X connect 25 0 35 0;
#X connect 26 0 27 0;
#X connect 27 0 7 0;
#X connect 27 1 25 1;
#X connect 28 0 7 1;
#X connect 30 0 5 1;
#X connect 31 0 44 0;
#X connect 35 0 36 0;
#X connect 40 0 10 0;
#X connect 40 1 11 0;
#X connect 40 2 39 0;
#X connect 41 0 40 0;
#X connect 44 0 46 0;
#X connect 46 0 6 0;
#X coords 0 -1 1 1 210 100 2 10 230;
