#N canvas 327 164 459 605 12;
#X obj 12 13 loadbang;
#X obj 12 37 bng 19 250 50 0 empty empty empty 0 -10 0 12 #fcfcfc #000000 #000000;
#X obj 12 61 t b b, f 22;
#X obj 163 109 text define \$0-progtxt;
#X msg 163 85 read progression.txt;
#X obj 12 85 text size \$0-progtxt;
#X floatatom 12 109 5 0 0 0 - - - 0;
#X msg 34 132 range 0 \$1;
#X obj 12 156 s \$0-progselinit;
#X symbolatom 177 193 22 0 0 1 Progress. \$0-progtype \$0-progtypeotp 0;
#X obj 180 170 hsl 150 18 0 15 0 0 \$0-progsel \$0-progselinit Progr.\ Select 28 10 0 12 #dfdfdf #000000 #7c7c7c 0 1;
#X obj 12 193 r \$0-progsel;
#X obj 12 217 text get \$0-progtxt;
#X obj 12 241 list split 1, f 29;
#X obj 12 264 s \$0-progtype;
#X listbox 112 264 32 0 0 0 - - - 0;
#X obj 112 288 t l l;
#X obj 144 311 list length;
#X obj 45 335 bng 19 250 50 0 empty empty empty 0 -10 0 12 #fcfcfc #000000 #000000;
#X obj 45 405 mod, f 4;
#X floatatom 133 503 3 0 0 0 - - - 0;
#X obj 133 526 - 1;
#X obj 45 526 +, f 2;
#X obj 45 454 list store;
#X msg 45 429 get \$1 2;
#X obj 45 381 + 2;
#X obj 45 357 i 0;
#X obj 45 478 unpack f f, f 13;
#X text 163 525 Offset;
#X msg 12 132 0, f 1;
#X obj 45 550 pack f f, f 13;
#X text 291 487 Author: Martin Heinze, f 22;
#X obj 45 572 outlet plug into Chordculator;
#X text 291 503 Last update: 18.01.26, f 22;
#X floatatom 336 170 4 0 127 1 Note \$0-noteinit \$0-note 0;
#X obj 180 37 unpack f f, f 15;
#X obj 180 61 s \$0-noteinit;
#X obj 282 61 s \$0-progselinit;
#X obj 56 503 r \$0-note;
#X obj 45 311 inlet Bang;
#X obj 180 13 inlet Preset;
#X text 172 146 ........== PROGRESSOR ==........;
#X text 151 335 Progressor is an add-on to Chordculator. It imports an external text file 'progression.txt' with chord progressions including their type \, half tone distance to key note and position in Chordculator's list of chords and outputs relative interval and chord type on sequential bangs retrieved through its first inlet. The output is plugged in to Chordculator's first inlet., f 42;
#X connect 0 0 1 0;
#X connect 1 0 2 0;
#X connect 2 0 5 0;
#X connect 2 1 4 0;
#X connect 4 0 3 0;
#X connect 5 0 6 0;
#X connect 6 0 7 0;
#X connect 6 0 29 0;
#X connect 7 0 8 0;
#X connect 11 0 12 0;
#X connect 12 0 13 0;
#X connect 13 0 14 0;
#X connect 13 1 15 0;
#X connect 15 0 16 0;
#X connect 16 0 23 1;
#X connect 16 1 17 0;
#X connect 17 0 19 1;
#X connect 18 0 26 0;
#X connect 19 0 24 0;
#X connect 19 0 26 1;
#X connect 20 0 21 0;
#X connect 21 0 30 1;
#X connect 22 0 30 0;
#X connect 23 0 27 0;
#X connect 24 0 23 0;
#X connect 25 0 19 0;
#X connect 26 0 25 0;
#X connect 27 0 22 0;
#X connect 27 1 20 0;
#X connect 29 0 8 0;
#X connect 30 0 32 0;
#X connect 35 0 36 0;
#X connect 35 1 37 0;
#X connect 38 0 22 1;
#X connect 39 0 18 0;
#X connect 40 0 35 0;
#X coords 0 -1 1 1 230 75 2 170 145;
