#N canvas 652 152 578 567 12;
#X floatatom 13 428 5 0 0 1 Array\ pos.\ select - - 0;
#X obj 13 14 loadbang;
#X obj 13 38 bng 19 250 50 0 empty empty empty 0 -10 0 12 #fcfcfc #000000 #000000;
#X msg 13 110 range 0 \$1;
#X obj 13 62 t b b, f 24;
#X msg 178 86 read scales.txt;
#X obj 178 110 text define \$0-scalestxt;
#X obj 13 86 text size \$0-scalestxt;
#X symbolatom 207 188 22 0 0 2 - \$0-scltype \$0-scltypeotp 0;
#X obj 210 165 hsl 150 18 0 50 0 0 \$0-sclsel \$0-sclselinit Scale\ Select 35 10 0 12 #dfdfdf #000000 #606060 0 1;
#X obj 33 152 s \$0-sclselinit;
#X obj 13 293 list split 1, f 34;
#X obj 13 199 r \$0-sclsel;
#X obj 13 269 text get \$0-scalestxt;
#X obj 13 317 s \$0-scltype;
#X floatatom 366 188 4 0 0 1 Idx \$0-sclindex \$0-sclindexotp 0;
#X obj 13 404 min;
#X obj 31 380 r \$0-sclindex;
#X obj 84 14 array define \$0-scl;
#X msg 13 133 0, f 1;
#X text 295 85 Load ./scales.txt;
#X obj 13 222 i, f 2;
#X obj 171 269 s \$0-sclseli;
#X obj 13 245 t f f, f 23;
#X obj 13 356 inlet Position;
#X obj 260 341 outlet Output index \, scale name and list ID;
#X obj 13 475 outlet Note value;
#X obj 226 14 inlet Preset;
#X obj 226 38 unpack f f, f 15;
#X obj 328 62 s \$0-sclselinit;
#X obj 226 62 s \$0-noteinit;
#X floatatom 366 165 4 0 127 1 Note \$0-noteinit \$0-note 0;
#X text 404 510 Author: Martin Heinze, f 22;
#X obj 13 174 s \$0-noteinit;
#N canvas 568 435 331 418 scalecalc 0;
#X floatatom 14 86 5 0 115 1 - - - 0;
#X obj 91 52 list length;
#X obj 14 181 +, f 2;
#X obj 37 181 +, f 2;
#X obj 60 181 +, f 2;
#X obj 84 181 +, f 2;
#X obj 107 181 +, f 2;
#X obj 39 136 t f f;
#X obj 130 181 +, f 2;
#X obj 14 236 list;
#X obj 14 110 t b f;
#X obj 4 284 array set \$0-scl;
#X obj 14 33 t b l l;
#X obj 153 181 +, f 2;
#X obj 177 181 +, f 2;
#X obj 14 260 list split \$1;
#X obj 135 284 array size \$0-scl;
#X obj 91 100 s \$0-sclindex;
#X obj 91 76 + 1;
#X obj 102 236 r \$0-sclindex;
#X obj 135 260 r \$0-sclindex;
#X obj 89 136 unpack f f f f f f f f f f f f;
#X obj 201 181 +, f 2;
#X obj 224 181 +, f 2;
#X obj 247 181 +, f 2;
#X obj 271 181 +, f 2;
#X obj 39 210 pack f f f f f f f f f f f f f;
#X obj 24 313 list length;
#X obj 117 313 r \$0-scltype;
#X obj 210 313 r \$0-sclseliotp;
#X obj 4 62 r \$0-note;
#X obj 14 9 inlet;
#X obj 24 360 outlet;
#X obj 24 336 pack f s f, f 27;
#X obj 14 385 outlet;
#X connect 0 0 10 0;
#X connect 1 0 18 0;
#X connect 2 0 26 1;
#X connect 3 0 26 2;
#X connect 4 0 26 3;
#X connect 5 0 26 4;
#X connect 6 0 26 5;
#X connect 7 0 26 0;
#X connect 7 1 2 0;
#X connect 7 1 3 0;
#X connect 7 1 14 0;
#X connect 7 1 13 0;
#X connect 7 1 8 0;
#X connect 7 1 6 0;
#X connect 7 1 5 0;
#X connect 7 1 4 0;
#X connect 7 1 22 0;
#X connect 7 1 25 0;
#X connect 7 1 24 0;
#X connect 7 1 23 0;
#X connect 8 0 26 6;
#X connect 9 0 15 0;
#X connect 10 0 9 0;
#X connect 10 1 7 0;
#X connect 12 0 0 0;
#X connect 12 1 21 0;
#X connect 12 2 1 0;
#X connect 13 0 26 7;
#X connect 14 0 26 8;
#X connect 15 0 11 0;
#X connect 15 0 27 0;
#X connect 15 0 34 0;
#X connect 18 0 17 0;
#X connect 19 0 15 1;
#X connect 20 0 16 0;
#X connect 21 0 2 1;
#X connect 21 1 3 1;
#X connect 21 2 4 1;
#X connect 21 3 5 1;
#X connect 21 4 6 1;
#X connect 21 5 8 1;
#X connect 21 6 13 1;
#X connect 21 7 14 1;
#X connect 21 8 22 1;
#X connect 21 9 23 1;
#X connect 21 10 24 1;
#X connect 21 11 25 1;
#X connect 22 0 26 9;
#X connect 23 0 26 10;
#X connect 24 0 26 11;
#X connect 25 0 26 12;
#X connect 26 0 9 1;
#X connect 27 0 33 0;
#X connect 28 0 33 1;
#X connect 29 0 33 2;
#X connect 30 0 0 0;
#X connect 31 0 12 0;
#X connect 33 0 32 0;
#X restore 130 317 pd scalecalc;
#X f 19;
#X obj 130 341 outlet Full array;
#X obj 13 451 array get \$0-scl 0 1;
#X text 187 374 Scaleculator calculates one array of note values based on a given key midi note and the selected harmonic scale., f 53;
#X text 404 526 Last updated: 18.01.26;
#X text 202 141 .......== SCALECULATOR ==.......;
#X text 187 419 Calculated midi note values from the selected scale can be called via the first inlet (position) \, the value is sent through first outlet., f 53;
#X text 187 464 The selected scale's index \, its name and list ID from the scales.txt list is put out through second outlet to main patch., f 53;
#X connect 0 0 36 0;
#X connect 1 0 2 0;
#X connect 2 0 4 0;
#X connect 3 0 10 0;
#X connect 3 0 19 0;
#X connect 4 0 7 0;
#X connect 4 1 5 0;
#X connect 5 0 6 0;
#X connect 7 0 3 0;
#X connect 11 0 14 0;
#X connect 11 1 34 0;
#X connect 12 0 21 0;
#X connect 13 0 11 0;
#X connect 16 0 0 0;
#X connect 17 0 16 1;
#X connect 19 0 10 0;
#X connect 19 0 33 0;
#X connect 21 0 23 0;
#X connect 23 0 13 0;
#X connect 23 1 22 0;
#X connect 24 0 16 0;
#X connect 27 0 28 0;
#X connect 28 0 30 0;
#X connect 28 1 29 0;
#X connect 34 0 35 0;
#X connect 34 1 25 0;
#X connect 36 0 26 0;
#X coords 0 -1 1 1 230 75 2 200 140;
